<?xml version="1.0" encoding="UTF-8"?>
<svg version="1.1" xmlns="http://www.w3.org/2000/svg" width="512" height="512">
<path d="M0 0 C1.18172791 -0.01283524 2.36345581 -0.02567047 3.58099365 -0.03889465 C4.86427551 -0.04628159 6.14755737 -0.05366852 7.46972656 -0.0612793 C9.4417807 -0.07338692 9.4417807 -0.07338692 11.45367432 -0.08573914 C14.24125032 -0.10076838 17.02880083 -0.1106045 19.81640625 -0.11816406 C23.37858784 -0.129211 26.94014172 -0.16358934 30.5021019 -0.20333576 C33.90795125 -0.23585146 37.313734 -0.24028552 40.71972656 -0.2487793 C41.9949115 -0.26628738 43.27009644 -0.28379547 44.58392334 -0.30183411 C55.55162123 -0.27496836 55.55162123 -0.27496836 60.36035156 4.17700195 C63.1811812 7.15589532 63.83051135 9.52300867 64.36035156 13.55200195 C67.0140441 31.24328553 71.02607895 46.80341215 86.11035156 57.98950195 C99.71726482 66.88552098 114.96537052 69.45559204 130.88769531 66.52856445 C140.47833715 63.57953661 148.45276811 58.0030536 155.88378906 51.3996582 C158.99238542 48.82560884 161.72391824 48.24905101 165.67285156 47.80200195 C174.49013693 48.69867504 179.95287699 54.17279622 185.91113281 60.1965332 C186.69175583 60.97332932 187.47237885 61.75012543 188.2766571 62.55046082 C189.91600043 64.18709457 191.5503531 65.82874096 193.17993164 67.47509766 C195.66872089 69.98533568 198.17816917 72.47348215 200.69042969 74.96020508 C202.28611504 76.5585333 203.88055931 78.15810171 205.47363281 79.7590332 C206.22050858 80.49781204 206.96738434 81.23659088 207.7368927 81.99775696 C212.78921197 87.14177478 215.86520058 91.28652996 216.79785156 98.61450195 C216.01812427 104.96370995 213.30584881 109.29995058 208.98535156 113.92700195 C199.16872378 124.63029289 196.75471558 137.39335172 197.04785156 151.3684082 C197.54087096 161.8224737 201.40271791 170.69188735 207.36035156 179.17700195 C208.00230469 180.11286133 208.00230469 180.11286133 208.65722656 181.06762695 C215.88777109 190.50986746 227.70951838 196.71066279 239.34960938 198.47924805 C242.79610107 198.92300576 246.23377795 199.28324944 249.69628906 199.5871582 C254.81333458 200.41090434 258.19298635 201.8834351 261.67285156 205.73950195 C264.22172583 209.42120922 264.49527068 211.35642942 264.53735352 215.81665039 C264.55018875 216.9983783 264.56302399 218.1801062 264.57624817 219.39764404 C264.58732857 221.32256683 264.58732857 221.32256683 264.59863281 223.28637695 C264.60670456 224.60107971 264.61477631 225.91578247 264.62309265 227.27032471 C264.6381219 230.05790071 264.64795802 232.84545122 264.65551758 235.63305664 C264.66656452 239.19523823 264.70094286 242.75679211 264.74068928 246.31875229 C264.77320498 249.72460164 264.77763903 253.13038439 264.78613281 256.53637695 C264.8036409 257.81156189 264.82114899 259.08674683 264.83918762 260.40057373 C264.81233429 271.36320466 264.81233429 271.36320466 260.36035156 276.17700195 C257.24914521 279.17824883 254.66568936 279.67352553 250.42285156 280.17700195 C234.13625919 282.43599239 219.38682923 286.31879137 208.49316406 299.4230957 C198.43037709 312.91932287 196.11692116 326.78664424 197.36035156 343.17700195 C199.40507982 354.29983096 205.74915151 363.38586483 213.13769531 371.70043945 C215.71174468 374.80903581 216.28830251 377.54056863 216.73535156 381.48950195 C215.83867847 390.30678732 210.36455729 395.76952738 204.34082031 401.7277832 C203.5640242 402.50840622 202.78722809 403.28902924 201.9868927 404.0933075 C200.35025895 405.73265082 198.70861255 407.36700349 197.06225586 408.99658203 C194.55201784 411.48537128 192.06387136 413.99481956 189.57714844 416.50708008 C187.97882022 418.10276543 186.37925181 419.6972097 184.77832031 421.2902832 C184.03954147 422.03715897 183.30076263 422.78403473 182.53959656 423.55354309 C177.39557874 428.60586236 173.25082356 431.68185097 165.92285156 432.61450195 C159.57364357 431.83477466 155.23740294 429.1224992 150.61035156 424.80200195 C139.90706062 414.98537417 127.14400179 412.57136597 113.16894531 412.86450195 C102.71487982 413.35752135 93.84546616 417.2193683 85.36035156 423.17700195 C84.42449219 423.81895508 84.42449219 423.81895508 83.46972656 424.47387695 C74.02748606 431.70442148 67.82669072 443.52616877 66.05810547 455.16625977 C65.61434775 458.61275146 65.25410408 462.05042835 64.95019531 465.51293945 C64.12644918 470.62998497 62.65391842 474.00963674 58.79785156 477.48950195 C55.11614429 480.03837622 53.18092409 480.31192107 48.72070312 480.35400391 C47.53897522 480.36683914 46.35724731 480.37967438 45.13970947 480.39289856 C43.85642761 480.40028549 42.57314575 480.40767242 41.25097656 480.4152832 C39.9362738 480.42335495 38.62157104 480.4314267 37.26702881 480.43974304 C34.4794528 480.45477229 31.6919023 480.46460841 28.90429688 480.47216797 C25.34211528 480.48321491 21.7805614 480.51759325 18.21860123 480.55733967 C14.81275187 480.58985537 11.40696913 480.59428942 8.00097656 480.6027832 C6.72579163 480.62029129 5.45060669 480.63779938 4.13677979 480.65583801 C-6.83091811 480.62897227 -6.83091811 480.62897227 -11.63964844 476.17700195 C-14.46047807 473.19810859 -15.10980823 470.83099523 -15.63964844 466.80200195 C-18.33299742 448.94770464 -22.26435955 433.72031735 -37.32714844 422.48950195 C-51.00910864 413.33327438 -66.14532684 410.92503954 -82.23730469 413.82543945 C-91.78958844 416.77041231 -99.7610712 422.37672597 -107.16308594 428.9543457 C-110.2716823 431.52839507 -113.00321512 432.1049529 -116.95214844 432.55200195 C-125.76943381 431.65532886 -131.23217386 426.18120769 -137.19042969 420.1574707 C-137.9710527 419.38067459 -138.75167572 418.60387848 -139.55595398 417.80354309 C-141.1952973 416.16690934 -142.82964998 414.52526294 -144.45922852 412.87890625 C-146.94801776 410.36866823 -149.45746605 407.88052175 -151.96972656 405.39379883 C-153.56541191 403.79547061 -155.15985619 402.1959022 -156.75292969 400.5949707 C-157.49980545 399.85619186 -158.24668121 399.11741302 -159.01618958 398.35624695 C-164.06850884 393.21222913 -167.14449746 389.06747395 -168.07714844 381.73950195 C-167.29742114 375.39029396 -164.58514568 371.05405333 -160.26464844 366.42700195 C-150.44802065 355.72371101 -148.03401245 342.96065218 -148.32714844 328.9855957 C-148.82064315 318.52145151 -152.69178077 309.67611235 -158.63964844 301.17700195 C-159.04441406 300.56469727 -159.44917969 299.95239258 -159.86621094 299.3215332 C-168.22568801 288.11573112 -181.45619027 283.49497262 -194.63964844 281.17700195 C-197.01344283 280.85547213 -199.38838934 280.54227899 -201.76464844 280.23950195 C-207.27822892 279.46746404 -209.95288502 278.36197664 -213.63964844 274.17700195 C-215.72301101 270.85250642 -215.90162281 268.20139055 -215.93017578 264.31030273 C-215.94293549 263.12872589 -215.95569519 261.94714905 -215.96884155 260.72976685 C-215.9710672 259.45680756 -215.97329285 258.18384827 -215.97558594 256.87231445 C-215.98224274 255.56044159 -215.98889954 254.24856873 -215.99575806 252.89694214 C-216.00772039 250.12128408 -216.01144 247.34575037 -216.01025391 244.57006836 C-216.01005082 241.02359057 -216.03734529 237.47791508 -216.07179832 233.93162727 C-216.09946408 230.5368448 -216.0982178 227.14220814 -216.10058594 223.74731445 C-216.11495697 222.47840363 -216.129328 221.2094928 -216.14413452 219.90213013 C-216.08766599 209.00093028 -216.08766599 209.00093028 -211.63964844 204.17700195 C-208.52844208 201.17575508 -205.94498623 200.68047838 -201.70214844 200.17700195 C-186.1539856 198.03302883 -170.83974194 194.3883791 -160.39111328 181.65551758 C-150.25244444 168.15858938 -146.92509671 153.89106749 -148.63964844 137.17700195 C-150.74200076 126.04324263 -157.00780183 116.99137334 -164.41699219 108.65356445 C-166.99104155 105.54496809 -167.56759938 102.81343527 -168.01464844 98.86450195 C-167.11797535 90.04721658 -161.64385417 84.58447653 -155.62011719 78.6262207 C-154.84332108 77.84559769 -154.06652496 77.06497467 -153.26618958 76.26069641 C-151.62955582 74.62135309 -149.98790943 72.98700041 -148.34155273 71.35742188 C-145.83131471 68.86863263 -143.34316824 66.35918434 -140.85644531 63.84692383 C-139.25811709 62.25123848 -137.65854868 60.65679421 -136.05761719 59.0637207 C-135.31883835 58.31684494 -134.58005951 57.56996918 -133.81889343 56.80046082 C-128.67487561 51.74814155 -124.53012044 48.67215293 -117.20214844 47.73950195 C-110.85294044 48.51922925 -106.51669981 51.23150471 -101.88964844 55.55200195 C-91.18661314 65.36839527 -78.4201998 67.78795814 -64.44433594 67.4855957 C-53.33208593 66.95945577 -44.51305402 62.66141372 -35.63964844 56.17700195 C-34.805625 55.56856445 -33.97160156 54.96012695 -33.11230469 54.33325195 C-21.26115195 43.99859744 -17.54844902 29.86828044 -16.22949219 14.84106445 C-15.40574605 9.72401894 -13.93321529 6.34436716 -10.07714844 2.86450195 C-6.39544117 0.31562769 -4.46022097 0.04208284 0 0 Z M-13.63964844 98.17700195 C-14.46529297 98.41306152 -15.2909375 98.64912109 -16.14160156 98.89233398 C-39.05212769 105.71010567 -59.41814702 117.63032426 -76.63964844 134.17700195 C-77.34686035 134.83756592 -77.34686035 134.83756592 -78.06835938 135.51147461 C-97.01762727 153.23403323 -109.74130788 176.05020246 -116.95214844 200.86450195 C-117.19465332 201.69473877 -117.4371582 202.52497559 -117.68701172 203.38037109 C-121.03893638 215.48875476 -122.02141147 227.39372664 -121.95214844 239.92700195 C-121.94999329 240.63143433 -121.94783813 241.3358667 -121.94561768 242.06164551 C-121.89338205 252.71469281 -121.39394379 262.83393118 -118.63964844 273.17700195 C-118.45160645 273.93239258 -118.26356445 274.6877832 -118.06982422 275.46606445 C-111.57598019 301.17280102 -99.09925043 323.2678108 -80.63964844 342.17700195 C-79.80175781 343.08836914 -78.96386719 343.99973633 -78.10058594 344.9387207 C-59.6254083 364.50231515 -35.19286828 375.95173579 -9.63964844 383.17700195 C-8.55562744 383.48855225 -8.55562744 383.48855225 -7.44970703 383.80639648 C12.01708255 389.09253195 37.98521155 388.39793302 57.36035156 383.17700195 C58.12492676 382.98364258 58.88950195 382.7902832 59.67724609 382.59106445 C76.64501382 378.24087118 93.09336332 371.47276666 107.36035156 361.17700195 C108.13741455 360.61770996 108.13741455 360.61770996 108.93017578 360.04711914 C136.62698126 339.8614485 155.99824262 312.51873199 165.61035156 279.61450195 C165.8568042 278.77636963 166.10325684 277.9382373 166.35717773 277.07470703 C169.71677133 265.05658256 170.77393688 253.19044487 170.73535156 240.73950195 C170.7344754 240.04312622 170.73359924 239.34675049 170.73269653 238.62927246 C170.57764543 201.02857455 156.44243772 166.32279472 130.36035156 139.17700195 C129.91997559 138.70552734 129.47959961 138.23405273 129.02587891 137.74829102 C111.28936855 118.78410569 88.45442559 106.04784888 63.61035156 98.86450195 C62.35242798 98.50074463 62.35242798 98.50074463 61.0690918 98.12963867 C49.04555938 94.81417567 37.34131197 93.76637113 24.92285156 93.80200195 C24.17501404 93.80287811 23.42717651 93.80375427 22.65667725 93.80465698 C10.204975 93.8526337 -1.60852971 94.73424345 -13.63964844 98.17700195 Z " fill="#000000" transform="translate(231.6396484375,15.822998046875)"/>
<path d="M0 0 C9.9544912 8.56080036 18.17068276 17.62306686 25.16015625 28.7578125 C26.05347656 30.0571875 26.05347656 30.0571875 26.96484375 31.3828125 C28.16015625 33.7578125 28.16015625 33.7578125 28.078125 35.8125 C20.22750311 52.44913704 -7.07635503 64.32155568 -23.22265625 70.21875 C-48.4560781 78.94392556 -78.11305194 80.08167347 -103.83984375 72.7578125 C-104.50677246 72.57589355 -105.17370117 72.39397461 -105.86083984 72.20654297 C-124.88034493 66.9030727 -142.0346358 56.66667437 -156.83984375 43.7578125 C-157.59265625 43.10167969 -158.34546875 42.44554687 -159.12109375 41.76953125 C-162.78648228 38.37322878 -162.78648228 38.37322878 -163.83984375 36.7578125 C-162.97555131 25.95415697 -152.0236019 16.10887798 -144.83984375 8.7578125 C-144.17082031 8.02691406 -143.50179687 7.29601562 -142.8125 6.54296875 C-106.76007645 -31.9485194 -39.75745764 -32.88610345 0 0 Z " fill="#000000" transform="translate(323.83984375,312.2421875)"/>
<path d="M0 0 C9.39248897 7.38429533 15.46906446 19.0870262 18.00390625 30.62890625 C18.97406704 46.39004304 17.13098667 59.85828853 7.00390625 72.62890625 C-1.68320268 82.15913147 -13.51051372 89.32814997 -26.6328125 89.96484375 C-42.58381501 90.25212192 -55.31289327 87.44153508 -67.47265625 76.375 C-77.9604624 65.44874042 -82.42362086 53.07141074 -82.36181641 38.21069336 C-82.04878251 24.95557465 -76.58427014 13.56732609 -67.99609375 3.62890625 C-47.65794869 -13.57043847 -22.18412064 -15.23801633 0 0 Z " fill="#000000" transform="translate(287.99609375,171.37109375)"/>
</svg>
