<svg width="39" height="39" viewBox="0 0 39 39" fill="none" xmlns="http://www.w3.org/2000/svg">
<g clip-path="url(#clip0_455_2913)">
<rect width="39" height="39" fill="url(#paint0_linear_455_2913)"/>
<path d="M18.0369 15.956V26H14.9589V24.632C14.6469 25.076 14.2209 25.436 13.6809 25.712C13.1529 25.976 12.5649 26.108 11.9169 26.108C11.1489 26.108 10.4709 25.94 9.88293 25.604C9.29493 25.256 8.83893 24.758 8.51493 24.11C8.19093 23.462 8.02893 22.7 8.02893 21.824V15.956H11.0889V21.41C11.0889 22.082 11.2629 22.604 11.6109 22.976C11.9589 23.348 12.4269 23.534 13.0149 23.534C13.6149 23.534 14.0889 23.348 14.4369 22.976C14.7849 22.604 14.9589 22.082 14.9589 21.41V15.956H18.0369ZM27.8978 19.52C28.6298 19.676 29.2178 20.042 29.6618 20.618C30.1058 21.182 30.3278 21.83 30.3278 22.562C30.3278 23.618 29.9558 24.458 29.2118 25.082C28.4798 25.694 27.4538 26 26.1338 26H20.2478V13.364H25.9358C27.2198 13.364 28.2218 13.658 28.9418 14.246C29.6738 14.834 30.0398 15.632 30.0398 16.64C30.0398 17.384 29.8418 18.002 29.4458 18.494C29.0618 18.986 28.5458 19.328 27.8978 19.52ZM23.3258 18.476H25.3418C25.8458 18.476 26.2298 18.368 26.4938 18.152C26.7698 17.924 26.9078 17.594 26.9078 17.162C26.9078 16.73 26.7698 16.4 26.4938 16.172C26.2298 15.944 25.8458 15.83 25.3418 15.83H23.3258V18.476ZM25.5938 23.516C26.1098 23.516 26.5058 23.402 26.7818 23.174C27.0698 22.934 27.2138 22.592 27.2138 22.148C27.2138 21.704 27.0638 21.356 26.7638 21.104C26.4758 20.852 26.0738 20.726 25.5578 20.726H23.3258V23.516H25.5938Z" fill="white"/>
</g>
<defs>
<linearGradient id="paint0_linear_455_2913" x1="19.5" y1="0" x2="19.4889" y2="42.4581" gradientUnits="userSpaceOnUse">
<stop stop-color="#FF9E4E"/>
<stop offset="1" stop-color="#ED726B"/>
</linearGradient>
<clipPath id="clip0_455_2913">
<rect width="39" height="39" rx="6.24" fill="transparent"/>
</clipPath>
</defs>
</svg>
