<svg width="100" height="100" viewBox="0 0 100 100" fill="none" xmlns="http://www.w3.org/2000/svg">
<g clip-path="url(#clip0_455_2914)">
<rect width="100" height="100" fill="url(#paint0_linear_455_2914)"/>
<path d="M24.075 46.956V57H20.997V55.632C20.685 56.076 20.259 56.436 19.719 56.712C19.191 56.976 18.603 57.108 17.955 57.108C17.187 57.108 16.509 56.94 15.921 56.604C15.333 56.256 14.877 55.758 14.553 55.11C14.229 54.462 14.067 53.7 14.067 52.824V46.956H17.127V52.41C17.127 53.082 17.301 53.604 17.649 53.976C17.997 54.348 18.465 54.534 19.053 54.534C19.653 54.534 20.127 54.348 20.475 53.976C20.823 53.604 20.997 53.082 20.997 52.41V46.956H24.075ZM32.4059 46.848C33.5819 46.848 34.5179 47.232 35.2139 48C35.9219 48.756 36.2759 49.8 36.2759 51.132V57H33.2159V51.546C33.2159 50.874 33.0419 50.352 32.6939 49.98C32.3459 49.608 31.8779 49.422 31.2899 49.422C30.7019 49.422 30.2339 49.608 29.8859 49.98C29.5379 50.352 29.3639 50.874 29.3639 51.546V57H26.2859V46.956H29.3639V48.288C29.6759 47.844 30.0959 47.496 30.6239 47.244C31.1519 46.98 31.7459 46.848 32.4059 46.848ZM46.0648 50.52C46.7968 50.676 47.3848 51.042 47.8288 51.618C48.2728 52.182 48.4948 52.83 48.4948 53.562C48.4948 54.618 48.1228 55.458 47.3788 56.082C46.6468 56.694 45.6208 57 44.3008 57H38.4148V44.364H44.1028C45.3868 44.364 46.3888 44.658 47.1088 45.246C47.8408 45.834 48.2068 46.632 48.2068 47.64C48.2068 48.384 48.0088 49.002 47.6128 49.494C47.2288 49.986 46.7128 50.328 46.0648 50.52ZM41.4928 49.476H43.5088C44.0128 49.476 44.3968 49.368 44.6608 49.152C44.9368 48.924 45.0748 48.594 45.0748 48.162C45.0748 47.73 44.9368 47.4 44.6608 47.172C44.3968 46.944 44.0128 46.83 43.5088 46.83H41.4928V49.476ZM43.7608 54.516C44.2768 54.516 44.6728 54.402 44.9488 54.174C45.2368 53.934 45.3808 53.592 45.3808 53.148C45.3808 52.704 45.2308 52.356 44.9308 52.104C44.6428 51.852 44.2408 51.726 43.7248 51.726H41.4928V54.516H43.7608ZM53.3581 43.68V57H50.2801V43.68H53.3581ZM60.1607 57.144C59.1767 57.144 58.2887 56.934 57.4967 56.514C56.7167 56.094 56.0987 55.494 55.6427 54.714C55.1987 53.934 54.9767 53.022 54.9767 51.978C54.9767 50.946 55.2047 50.04 55.6607 49.26C56.1167 48.468 56.7407 47.862 57.5327 47.442C58.3247 47.022 59.2127 46.812 60.1967 46.812C61.1807 46.812 62.0687 47.022 62.8607 47.442C63.6527 47.862 64.2767 48.468 64.7327 49.26C65.1887 50.04 65.4167 50.946 65.4167 51.978C65.4167 53.01 65.1827 53.922 64.7147 54.714C64.2587 55.494 63.6287 56.094 62.8247 56.514C62.0327 56.934 61.1447 57.144 60.1607 57.144ZM60.1607 54.48C60.7487 54.48 61.2467 54.264 61.6547 53.832C62.0747 53.4 62.2847 52.782 62.2847 51.978C62.2847 51.174 62.0807 50.556 61.6727 50.124C61.2767 49.692 60.7847 49.476 60.1967 49.476C59.5967 49.476 59.0987 49.692 58.7027 50.124C58.3067 50.544 58.1087 51.162 58.1087 51.978C58.1087 52.782 58.3007 53.4 58.6847 53.832C59.0807 54.264 59.5727 54.48 60.1607 54.48ZM66.4376 51.978C66.4376 50.934 66.6476 50.022 67.0676 49.242C67.4996 48.462 68.0936 47.862 68.8496 47.442C69.6176 47.022 70.4936 46.812 71.4776 46.812C72.7376 46.812 73.7876 47.142 74.6276 47.802C75.4796 48.462 76.0376 49.392 76.3016 50.592H73.0256C72.7496 49.824 72.2156 49.44 71.4236 49.44C70.8596 49.44 70.4096 49.662 70.0736 50.106C69.7376 50.538 69.5696 51.162 69.5696 51.978C69.5696 52.794 69.7376 53.424 70.0736 53.868C70.4096 54.3 70.8596 54.516 71.4236 54.516C72.2156 54.516 72.7496 54.132 73.0256 53.364H76.3016C76.0376 54.54 75.4796 55.464 74.6276 56.136C73.7756 56.808 72.7256 57.144 71.4776 57.144C70.4936 57.144 69.6176 56.934 68.8496 56.514C68.0936 56.094 67.4996 55.494 67.0676 54.714C66.6476 53.934 66.4376 53.022 66.4376 51.978ZM84.086 57L81.026 52.788V57H77.948V43.68H81.026V51.042L84.068 46.956H87.866L83.69 51.996L87.902 57H84.086Z" fill="white"/>
</g>
<defs>
<linearGradient id="paint0_linear_455_2914" x1="50" y1="0" x2="49.9716" y2="108.867" gradientUnits="userSpaceOnUse">
<stop stop-color="#FF9E4E"/>
<stop offset="1" stop-color="#ED726B"/>
</linearGradient>
<clipPath id="clip0_455_2914">
<rect width="100" height="100" rx="16" fill="transparent"/>
</clipPath>
</defs>
</svg>
