<svg width="54" height="53" viewBox="0 0 54 53" fill="none" xmlns="http://www.w3.org/2000/svg">
<path d="M27 38.3146C29.65 38.3146 31.8768 37.4129 33.6802 35.6094C35.4837 33.806 36.3854 31.5608 36.3854 28.874C36.3854 26.224 35.4837 24.0065 33.6802 22.2214C31.8768 20.4363 29.65 19.5438 27 19.5438C24.3132 19.5438 22.0773 20.4363 20.2922 22.2214C18.5071 24.0065 17.6146 26.224 17.6146 28.874C17.6146 31.5608 18.5071 33.806 20.2922 35.6094C22.0773 37.4129 24.3132 38.3146 27 38.3146ZM27 35.0021C25.2334 35.0021 23.7795 34.4224 22.6386 33.2631C21.4976 32.1037 20.9271 30.6407 20.9271 28.874C20.9271 27.1441 21.4976 25.7087 22.6386 24.5678C23.7795 23.4268 25.2334 22.8563 27 22.8563C28.7299 22.8563 30.1745 23.4268 31.3339 24.5678C32.4933 25.7087 33.0729 27.1441 33.0729 28.874C33.0729 30.6407 32.4933 32.1037 31.3339 33.2631C30.1745 34.4224 28.7299 35.0021 27 35.0021ZM8.33962 46.7063C7.34587 46.7063 6.47173 46.329 5.71722 45.5745C4.96271 44.82 4.58545 43.9459 4.58545 42.9521V14.8511C4.58545 13.8573 4.96271 12.9832 5.71722 12.2287C6.47173 11.4742 7.34587 11.0969 8.33962 11.0969H16.2896L20.4302 6.12817H33.5698L37.7104 11.0969H45.6604C46.6542 11.0969 47.5283 11.4742 48.2828 12.2287C49.0374 12.9832 49.4146 13.8573 49.4146 14.8511V42.9521C49.4146 43.9459 49.0374 44.82 48.2828 45.5745C47.5283 46.329 46.6542 46.7063 45.6604 46.7063H8.33962ZM45.6604 42.9521V14.8511H35.999L31.8032 9.93755H22.1969L18.0011 14.8511H8.33962V42.9521H45.6604Z" fill="white"/>
</svg>
